#!OML:ASF E:\emotionWalksFemale\Project 1\Capture day 1\Session 1\Female1.ASF
:FULLY-SPECIFIED
:DEGREES
1630
root 7.63431 15.5086 -32.7785 -180.321 -41.4845 -179.816
lowerback 8.18996 -1.90118 -3.4481
upperback -4.5968 -3.07226 -0.340933
thorax -9.3378 -1.31163 2.06844
lowerneck 0.331786 -11.0512 -10.2393
upperneck 8.1086 -15.5601 8.09501
head 3.79778 -7.86484 3.3847
rclavicle -3.77691e-015 -7.55382e-015
rhumerus -47.3142 4.02288 -81.0549
rradius 38.9212
rwrist 4.90244
rhand 160.506 -70.8742
rfingers 7.12502
rthumb -173.172 -41.0043
lclavicle -3.77691e-015 -7.55382e-015
lhumerus -42.2286 0.7584 84.2443
lradius 33.5147
lwrist -17.0271
lhand -2.09886 -30.9345
lfingers 7.12502
lthumb 23.5786 -2.35998
rfemur -17.8451 24.5178 7.38053
rtibia 26.0731
rfoot -9.71793 0.381727
rtoes -32.7941
lfemur -3.93263 -17.2579 -22.9318
ltibia 32.7143
lfoot -7.05975 -21.0236
ltoes 31.461
1631
root 7.65075 15.5266 -32.8382 -180.518 -42.6888 -179.4
lowerback 8.15842 -1.8526 -3.11929
upperback -4.55601 -2.9514 -0.243744
thorax -9.29033 -1.26991 1.96644
lowerneck 0.557015 -11.2752 -10.6105
upperneck 7.65418 -15.8496 8.34339
head 3.70016 -8.00924 3.51382
rclavicle -6.3959e-014 3.97569e-016
rhumerus -47.2572 3.89118 -80.6654
rradius 39.148
rwrist 4.30183
rhand 160.198 -70.7633
rfingers 7.12502
rthumb -173.469 -40.884
lclavicle -6.3959e-014 3.97569e-016
lhumerus -41.9546 0.855872 84.3383
lradius 33.2535
lwrist -17.3469
lhand -2.08574 -31.4176
lfingers 7.12502
lthumb 23.5912 -2.84469
rfemur -17.351 24.3923 7.82215
rtibia 26.1687
rfoot -9.6142 0.901473
rtoes -30.1995
lfemur -4.09067 -17.4781 -22.2411
ltibia 32.7643
lfoot -6.21724 -21.4889
ltoes 32.8291
1632
root 7.66724 15.5494 -32.9018 -180.754 -43.9954 -178.998
lowerback 8.14031 -1.94393 -2.94692
upperback -4.51249 -3.04114 -0.16731
thorax -9.23069 -1.32183 1.96293
lowerneck 0.687583 -11.3732 -10.39
upperneck 7.28688 -15.9294 8.09532
head 3.53864 -8.04702 3.42424
rclavicle -4.83047e-014 -1.39149e-014
rhumerus -47.179 3.86459 -80.4955
rradius 39.3432
rwrist 4.02364
rhand 160.045 -70.6798
rfingers 7.12502
rthumb -173.616 -40.796
lclavicle -4.83047e-014 -1.39149e-014
lhumerus -42.7919 -0.387611 84.9023
lradius 34.923
lwrist -16.0669
lhand -1.94797 -30.7054
lfingers 7.12502
lthumb 23.7233 -2.14961
rfemur -16.775 24.2965 8.32796
rtibia 26.2236
rfoot -9.44417 0.96607
rtoes -29.644
lfemur -4.2363 -17.7409 -21.5891
ltibia 32.8379
lfoot -5.61325 -21.6541
ltoes 32.9249
1633
root 7.68433 15.5618 -32.9683 -180.792 -45.2718 -178.986
lowerback 8.17355 -1.93512 -2.98083
upperback -4.50022 -3.03852 -0.224482
thorax -9.23863 -1.32008 1.92188
lowerneck 0.981945 -11.5452 -10.3096
upperneck 6.91638 -16.1325 7.89855
head 3.3761 -8.15284 3.3716
rclavicle -2.28602e-015 -3.57812e-015
rhumerus -47.2665 3.69687 -80.3289
rradius 39.4078
rwrist 3.87587
rhand 160.043 -70.7216
rfingers 7.12502
rthumb -173.619 -40.8377
lclavicle -2.28602e-015 -3.57812e-015
lhumerus -42.0066 0.349601 84.5055
lradius 33.6737
lwrist -16.9603
lhand -2.29096 -31.2146
lfingers 7.12502
lthumb 23.3943 -2.61654
rfemur -15.9849 24.4377 8.53147
rtibia 25.9057
rfoot -8.94258 0.80261
rtoes -29.9826
lfemur -4.36286 -18.0729 -21.276
ltibia 33.0847
lfoot -4.42969 -22.0405
ltoes 36.7083
1634
root 7.70397 15.5683 -33.034 -180.838 -46.4998 -178.856
lowerback 8.20636 -1.93084 -2.9519
upperback -4.53813 -3.033 -0.235485
thorax -9.30187 -1.31798 1.89572
lowerneck 1.12199 -11.5689 -10.6643
upperneck 6.79382 -16.2077 8.36317
head 3.38989 -8.19089 3.56209
rclavicle -1.45113e-014 -1.27222e-014
rhumerus -47.358 3.75664 -80.2528
rradius 39.3933
rwrist 3.64453
rhand 160.088 -70.7214
rfingers 7.12502
rthumb -173.575 -40.8389
lclavicle -1.45113e-014 -1.27222e-014
lhumerus -42.5436 -0.590455 84.9578
lradius 34.5541
lwrist -15.8615
lhand -2.49365 -30.8271
lfingers 7.12502
lthumb 23.1998 -2.20435
rfemur -15.3627 24.6034 8.74664
rtibia 25.5316
rfoot -8.40512 0.697848
rtoes -27.5728
lfemur -4.58403 -18.5181 -20.8027
ltibia 33.3589
lfoot -2.69775 -22.6675
ltoes 42.4539
1635
root 7.72135 15.6074 -33.102 -180.96 -47.8128 -178.501
lowerback 8.20111 -1.99161 -2.83794
upperback -4.57366 -3.09456 -0.160284
thorax -9.33576 -1.35104 1.92224
lowerneck 1.06942 -11.5563 -10.8086
upperneck 6.697 -16.1862 8.54373
head 3.39357 -8.17571 3.63533
rclavicle -1.11319e-014 1.19271e-015
rhumerus -47.3496 3.86167 -80.1404
rradius 39.4538
rwrist 3.57298
rhand 160.158 -70.7337
rfingers 7.12502
rthumb -173.507 -40.8532
lclavicle -1.11319e-014 1.19271e-015
lhumerus -42.7512 -1.14786 85.265
lradius 35.0608
lwrist -15.1169
lhand -2.61707 -30.6182
lfingers 7.12502
lthumb 23.0814 -1.98065
rfemur -14.861 24.8867 9.07367
rtibia 25.1406
rfoot -8.03367 0.447562
rtoes -20.0022
lfemur -5.32724 -19.0462 -20.1093
ltibia 33.6392
lfoot -2.00613 -22.9214
ltoes 42.4631
1636
root 7.74087 15.5925 -33.1693 -180.983 -49.1169 -178.284
lowerback 8.11675 -2.02176 -2.75247
upperback -4.57069 -3.1191 -0.13838
thorax -9.28426 -1.36863 1.89745
lowerneck 0.754823 -11.7143 -10.7547
upperneck 6.77385 -16.3393 8.2936
head 3.45773 -8.2432 3.52038
rclavicle 9.23852e-014 1.63003e-014
rhumerus -47.3262 3.70392 -79.9323
rradius 39.6449
rwrist 3.5626
rhand 160.141 -70.7607
rfingers 7.12502
rthumb -173.524 -40.8797
lclavicle 9.23852e-014 1.63003e-014
lhumerus -42.5324 -1.16416 85.3291
lradius 35.0704
lwrist -15.009
lhand -2.67193 -30.8017
lfingers 7.12502
lthumb 23.0288 -2.15753
rfemur -14.483 25.0256 9.26688
rtibia 24.8123
rfoot -7.34959 0.321952
rtoes -9.56791
lfemur -5.67953 -19.4497 -19.5529
ltibia 33.8253
lfoot -1.70075 -23.2317
ltoes 42.188
1637
root 7.75686 15.5884 -33.2349 -181.039 -50.2912 -178.18
lowerback 8.15059 -1.97388 -2.64021
upperback -4.54394 -3.04347 -0.180185
thorax -9.28622 -1.33989 1.77929
lowerneck 0.778318 -11.6748 -10.5197
upperneck 6.43593 -16.2314 8.08019
head 3.3055 -8.18482 3.44699
rclavicle -7.41467e-014 -1.70955e-014
rhumerus -47.3006 3.58819 -79.7882
rradius 39.7402
rwrist 3.43535
rhand 160.138 -70.7472
rfingers 7.12502
rthumb -173.527 -40.8661
lclavicle -7.41467e-014 -1.70955e-014
lhumerus -42.2479 -1.15904 85.313
lradius 34.9879
lwrist -14.9722
lhand -2.5479 -31.3709
lfingers 7.12502
lthumb 23.1478 -2.74162
rfemur -13.8786 24.9096 9.55123
rtibia 24.4724
rfoot -6.93141 0.131575
rtoes -13.1351
lfemur -5.78292 -19.8144 -19.1522
ltibia 33.9431
lfoot -1.23947 -23.534
ltoes 42.45
1638
root 7.76915 15.61 -33.305 -181.177 -51.3587 -178.121
lowerback 8.24809 -1.89742 -2.64338
upperback -4.46393 -2.94083 -0.20689
thorax -9.26201 -1.29022 1.73868
lowerneck 0.59606 -11.5512 -10.395
upperneck 6.30857 -16.0212 8.0063
head 3.26115 -8.07159 3.41621
rclavicle -4.32357e-014 -5.1684e-015
rhumerus -47.2044 3.74585 -79.7473
rradius 39.7074
rwrist 3.30964
rhand 159.816 -70.7606
rfingers 7.12502
rthumb -173.838 -40.8702
lclavicle -4.32357e-014 -5.1684e-015
lhumerus -42.1789 -1.67757 85.4928
lradius 35.2934
lwrist -14.4408
lhand -2.44763 -31.5445
lfingers 7.12502
lthumb 23.244 -2.92731
rfemur -13.2809 24.6785 9.94631
rtibia 24.5116
rfoot -7.49269 0.0362619
rtoes -31.1804
lfemur -5.71345 -20.0957 -18.8299
ltibia 33.833
lfoot -0.240666 -23.7623
ltoes 43.3916
1639
root 7.77841 15.6241 -33.3782 -181.043 -52.4448 -178.373
lowerback 8.1893 -1.84905 -2.87307
upperback -4.35299 -2.90217 -0.277431
thorax -9.101 -1.26313 1.7806
lowerneck 0.0813481 -11.5447 -10.2863
upperneck 6.64936 -15.9513 7.68034
head 3.40571 -8.0275 3.26811
rclavicle -1.04412e-013 1.07344e-014
rhumerus -47.086 3.9133 -79.7161
rradius 39.7285
rwrist 3.34758
rhand 159.409 -70.7835
rfingers 7.12502
rthumb -174.231 -40.882
lclavicle -1.04412e-013 1.07344e-014
lhumerus -42.2822 -2.14824 85.6669
lradius 35.9809
lwrist -13.8993
lhand -2.36711 -31.1448
lfingers 7.12502
lthumb 23.3212 -2.53746
rfemur -12.7507 24.4104 10.0795
rtibia 24.6529
rfoot -7.29257 0.131997
rtoes -19.5413
lfemur -5.66549 -20.2291 -18.7343
ltibia 33.6794
lfoot 0.310007 -24.1534
ltoes 42.8196
1640
root 7.78701 15.6279 -33.4502 -180.663 -53.6032 -178.95
lowerback 8.15058 -1.81698 -3.18895
upperback -4.2499 -2.90511 -0.435553
thorax -8.95985 -1.25467 1.78565
lowerneck 0.0025579 -11.1924 -9.72531
upperneck 6.19989 -15.4122 7.41911
head 3.17122 -7.74823 3.16342
rclavicle 3.09607e-014 1.70955e-014
rhumerus -47.0003 3.98496 -79.6839
rradius 39.781
rwrist 3.36425
rhand 159.849 -70.6989
rfingers 7.12502
rthumb -173.806 -40.8095
lclavicle 3.09607e-014 1.70955e-014
lhumerus -42.3377 -2.43364 85.7147
lradius 36.527
lwrist -13.5024
lhand -2.21546 -30.9838
lfingers 7.12502
lthumb 23.4667 -2.3949
rfemur -12.0803 24.1696 9.99463
rtibia 24.6856
rfoot -7.94217 0.312779
rtoes -22.669
lfemur -5.64623 -20.4375 -18.8724
ltibia 33.6441
lfoot 0.956881 -24.4748
ltoes 42.7259
